<?xml version="1.0" encoding="utf-8"?>
<!-- Generator: Adobe Illustrator 19.1.1, SVG Export Plug-In . SVG Version: 6.00 Build 0)  -->
<svg version="1.1" id="icn_x5F_archive" xmlns="http://www.w3.org/2000/svg" xmlns:xlink="http://www.w3.org/1999/xlink" x="0px"
	 y="0px" viewBox="0 0 108 108" style="enable-background:new 0 0 108 108;" xml:space="preserve">
<style type="text/css">
	.st0{fill:#FFFFFF;}
</style>
<g>
	<path class="st0" d="M45.3,75.2h18.7c1.2,0,2.1-1,2.1-2.1c0-1.2-1-2.1-2.1-2.1H45.3c-1.2,0-2.1,1-2.1,2.1
		C43.2,74.3,44.2,75.2,45.3,75.2z"/>
	<path class="st0" d="M45.3,53h18.7c1.2,0,2.1-1,2.1-2.1c0-1.2-1-2.1-2.1-2.1H45.3c-1.2,0-2.1,1-2.1,2.1C43.2,52.1,44.2,53,45.3,53z
		"/>
	<path class="st0" d="M45.3,30.9h18.7c1.2,0,2.1-1,2.1-2.1c0-1.2-1-2.1-2.1-2.1H45.3c-1.2,0-2.1,1-2.1,2.1
		C43.2,29.9,44.2,30.9,45.3,30.9z"/>
	<path class="st0" d="M86.6,18.1H22.8c-1.5,0-2.7,1.2-2.7,2.7v22.2v22.2v22.2c0,1.5,1.2,2.7,2.7,2.7h63.8c1.5,0,2.7-1.2,2.7-2.7
		V65.2V43.1V20.9C89.3,19.4,88.1,18.1,86.6,18.1z M83.9,84.7H25.5V68h58.4V84.7z M83.9,62.5H25.5V45.8h58.4V62.5z M83.9,40.3H25.5
		V23.6h58.4V40.3z"/>
</g>
</svg>
