<?xml version="1.0" encoding="utf-8"?>
<!-- Generator: Adobe Illustrator 19.1.1, SVG Export Plug-In . SVG Version: 6.00 Build 0)  -->
<svg version="1.1" id="icn_x5F_calendar" xmlns="http://www.w3.org/2000/svg" xmlns:xlink="http://www.w3.org/1999/xlink" x="0px"
	 y="0px" viewBox="0 0 108 108" style="enable-background:new 0 0 108 108;" xml:space="preserve">
<style type="text/css">
	.st0{fill-rule:evenodd;clip-rule:evenodd;fill:#FFFFFF;}
</style>
<path class="st0" d="M84,84.6H24c-3.3,0-6-2.7-6-6v-42c0-3.3,2.7-6,6-6h6.3c-0.2,0.5-0.3,1-0.3,1.5c0,2.5,2,4.5,4.5,4.5h9
	c2.5,0,4.5-2,4.5-4.5c0-0.5-0.1-1-0.3-1.5h12.6c-0.2,0.5-0.3,1-0.3,1.5c0,2.5,2,4.5,4.5,4.5h9c2.5,0,4.5-2,4.5-4.5
	c0-0.5-0.1-1-0.3-1.5H84c3.3,0,6,2.7,6,6v42C90,82,87.3,84.6,84,84.6z M84,48.6c0-3.3-2.7-6-6-6H30c-3.3,0-6,2.7-6,6v24
	c0,3.3,2.7,6,6,6h48c3.3,0,6-2.7,6-6V48.6z M73.5,72.6c-2.5,0-4.5-2-4.5-4.5c0-2.5,2-4.5,4.5-4.5c2.5,0,4.5,2,4.5,4.5
	C78,70.6,76,72.6,73.5,72.6z M73.5,57.6c-2.5,0-4.5-2-4.5-4.5c0-2.5,2-4.5,4.5-4.5c2.5,0,4.5,2,4.5,4.5C78,55.6,76,57.6,73.5,57.6z
	 M61.5,72.6c-2.5,0-4.5-2-4.5-4.5c0-2.5,2-4.5,4.5-4.5c2.5,0,4.5,2,4.5,4.5C66,70.6,64,72.6,61.5,72.6z M61.5,57.6
	c-2.5,0-4.5-2-4.5-4.5c0-2.5,2-4.5,4.5-4.5c2.5,0,4.5,2,4.5,4.5C66,55.6,64,57.6,61.5,57.6z M46.5,72.6c-2.5,0-4.5-2-4.5-4.5
	c0-2.5,2-4.5,4.5-4.5c2.5,0,4.5,2,4.5,4.5C51,70.6,49,72.6,46.5,72.6z M46.5,57.6c-2.5,0-4.5-2-4.5-4.5c0-2.5,2-4.5,4.5-4.5
	c2.5,0,4.5,2,4.5,4.5C51,55.6,49,57.6,46.5,57.6z M34.5,72.6c-2.5,0-4.5-2-4.5-4.5c0-2.5,2-4.5,4.5-4.5c2.5,0,4.5,2,4.5,4.5
	C39,70.6,37,72.6,34.5,72.6z M34.5,57.6c-2.5,0-4.5-2-4.5-4.5c0-2.5,2-4.5,4.5-4.5c2.5,0,4.5,2,4.5,4.5C39,55.6,37,57.6,34.5,57.6z
	 M70.5,33.6h-3c-2.5,0-4.5-2-4.5-4.5c0-2.5,2-4.5,4.5-4.5h3c2.5,0,4.5,2,4.5,4.5C75,31.6,73,33.6,70.5,33.6z M40.5,33.6h-3
	c-2.5,0-4.5-2-4.5-4.5c0-2.5,2-4.5,4.5-4.5h3c2.5,0,4.5,2,4.5,4.5C45,31.6,43,33.6,40.5,33.6z"/>
</svg>
