<?xml version="1.0" encoding="utf-8"?>
<!-- Generator: Adobe Illustrator 19.1.1, SVG Export Plug-In . SVG Version: 6.00 Build 0)  -->
<svg version="1.1" id="icn_x5F_champs" xmlns="http://www.w3.org/2000/svg" xmlns:xlink="http://www.w3.org/1999/xlink" x="0px"
	 y="0px" viewBox="0 0 108 108" style="enable-background:new 0 0 108 108;" xml:space="preserve">
<style type="text/css">
	.st0{fill:#FFFFFF;}
</style>
<g>
	<circle class="st0" cx="54.5" cy="27.9" r="6.7"/>
	<path class="st0" d="M46.4,58.3v1.9v26.2c0,2,1.6,3.6,3.6,3.6c2,0,3.6-1.6,3.6-3.6V60.2h1.7v26.2c0,2,1.6,3.6,3.6,3.6
		c2,0,3.6-1.6,3.6-3.6V60.2v-1.9v-7.7H46.4V58.3z"/>
	<path class="st0" d="M62.5,48.5v-3.7v-1.8c2.8-0.3,6.6-1.2,9.9-4.1c4.4-3.9,6.4-10,6.1-18.3c-0.1-1.5-1.3-2.7-2.9-2.7
		c-1.5,0.1-2.7,1.3-2.7,2.9c0.2,6.5-1.2,11.2-4.2,13.9c-2,1.8-4.3,2.4-6.2,2.7v-0.3c0-0.8-0.6-1.4-1.4-1.4H47.8
		c-0.8,0-1.4,0.6-1.4,1.4v0.2c-1.9-0.2-4.2-0.9-6.2-2.7c-3-2.7-4.5-7.4-4.2-13.9c0.1-1.5-1.1-2.8-2.7-2.9c-1.5-0.1-2.8,1.1-2.9,2.7
		c-0.3,8.2,1.7,14.4,6.1,18.2c3.2,2.9,7.1,3.9,9.9,4.1v1.8v3.7h-28V50h72v-1.4H62.5z"/>
</g>
</svg>
