<?xml version="1.0" encoding="utf-8"?>
<!-- Generator: Adobe Illustrator 19.1.1, SVG Export Plug-In . SVG Version: 6.00 Build 0)  -->
<svg version="1.1" id="icn_x5F_council" xmlns="http://www.w3.org/2000/svg" xmlns:xlink="http://www.w3.org/1999/xlink" x="0px"
	 y="0px" viewBox="0 0 108 108" style="enable-background:new 0 0 108 108;" xml:space="preserve">
<style type="text/css">
	.st0{fill:#FFFFFF;}
</style>
<g>
	<path class="st0" d="M33.2,35.4c0.1,0,0.2,0,0.3,0c0.1,0,0.2,0,0.3,0c1.9-0.1,3.3-1.7,3.3-3.6c0-2-1.6-3.6-3.6-3.6
		c-2,0-3.6,1.6-3.6,3.6C29.8,33.8,31.3,35.3,33.2,35.4z"/>
	<path class="st0" d="M54.2,26.6c0.1,0,0.2,0,0.3,0c0.1,0,0.2,0,0.3,0c1.9-0.1,3.3-1.7,3.3-3.6c0-2-1.6-3.6-3.6-3.6
		c-2,0-3.6,1.6-3.6,3.6C50.9,24.9,52.4,26.4,54.2,26.6z"/>
	<path class="st0" d="M28.7,51.7c0.1,0,0.2,0,0.3,0c0.1,0,0.2,0,0.3,0c1.9-0.1,3.3-1.7,3.3-3.6c0-2-1.6-3.6-3.6-3.6
		c-2,0-3.6,1.6-3.6,3.6C25.4,50,26.8,51.6,28.7,51.7z"/>
	<path class="st0" d="M24.2,68c0.1,0,0.2,0,0.3,0c0.1,0,0.2,0,0.3,0c1.9-0.1,3.3-1.7,3.3-3.6c0-2-1.6-3.6-3.6-3.6
		c-2,0-3.6,1.6-3.6,3.6C20.9,66.3,22.4,67.8,24.2,68z"/>
	<path class="st0" d="M75.2,35.4c0.1,0,0.2,0,0.3,0c0,0,0.2,0,0.3,0c1.9-0.1,3.3-1.7,3.3-3.6c0-2-1.6-3.6-3.6-3.6
		c-2,0-3.6,1.6-3.6,3.6C71.9,33.8,73.4,35.3,75.2,35.4z"/>
	<path class="st0" d="M76.4,48.1c0,1.9,1.5,3.4,3.3,3.6c0.1,0,0.2,0,0.3,0c0.1,0,0.1,0,0.3,0c1.9-0.1,3.3-1.7,3.3-3.6
		c0-2-1.6-3.6-3.6-3.6C78,44.5,76.4,46.1,76.4,48.1z"/>
	<path class="st0" d="M80.9,64.4c0,1.9,1.5,3.4,3.3,3.6c0.1,0,0.2,0,0.3,0c0,0,0.1,0,0.3,0c1.9-0.1,3.3-1.7,3.3-3.6
		c0-2-1.6-3.6-3.6-3.6C82.5,60.8,80.9,62.4,80.9,64.4z"/>
	<path class="st0" d="M88,70.3c-1.6-1.5-3.4-1.3-3.5-1.3c0,0-0.1,0-0.1,0c-0.1,0-1.9-0.2-3.5,1.3c-1.4,1.3-2.2,3.5-2.4,6.5l-0.7-2.5
		c0.4-2,1.2-3.6,2.4-4.7c0.6-0.6,1.3-0.9,1.9-1.2c-1.4-0.8-2.3-2.3-2.3-4c0-2.5,2.1-4.6,4.6-4.6c0.5,0,1,0.1,1.5,0.2
		c-0.2-2.7-1-4.7-2.4-6c-1.6-1.5-3.4-1.3-3.5-1.3c0,0-0.1,0-0.1,0c-0.1,0-1.9-0.2-3.5,1.3c-1.4,1.3-2.2,3.4-2.4,6.4l-0.7-2.5
		c0.4-2,1.2-3.5,2.4-4.6c0.6-0.6,1.3-0.9,1.9-1.2c-1.4-0.8-2.3-2.3-2.3-4c0-2.5,2.1-4.6,4.6-4.6c0.5,0,1,0.1,1.5,0.2
		c-0.2-2.7-1-4.7-2.4-6c-1.6-1.5-3.4-1.3-3.5-1.3c0,0-0.1,0-0.1,0c-0.1,0-1.9-0.2-3.5,1.3c-1.4,1.3-2.2,3.4-2.4,6.2l-0.7-2.5l-1-3.8
		h-0.6h-5.7h-1c0-0.2,0-0.3,0-0.3c0-0.3,0-0.5,0-0.8c0-3.7-0.8-6.3-2.5-7.8c-1.6-1.5-3.4-1.3-3.5-1.3c0,0-0.1,0-0.1,0
		c-0.1,0-1.9-0.2-3.5,1.3c-1.6,1.5-2.5,4.1-2.5,7.8c0,0.3,0,0.5,0,0.8c0,0,0,0.1,0,0.3h-1h-6.3l-1,3.8L39.4,44c-0.2-2.9-1-5-2.4-6.2
		c-1.6-1.5-3.4-1.3-3.5-1.3c0,0-0.1,0-0.1,0c-0.1,0-1.9-0.2-3.5,1.3c-1.3,1.2-2.1,3.2-2.4,6c0.5-0.2,1-0.2,1.5-0.2
		c2.5,0,4.6,2.1,4.6,4.6c0,1.7-0.9,3.2-2.3,4c0.6,0.2,1.3,0.6,1.9,1.2c1.2,1.1,2,2.6,2.4,4.6L35,60.4c-0.2-2.9-1-5.1-2.4-6.4
		c-1.6-1.5-3.4-1.3-3.5-1.3c0,0-0.1,0-0.1,0c-0.1,0-1.9-0.2-3.5,1.3c-1.3,1.2-2.1,3.2-2.4,6c0.5-0.2,1-0.2,1.5-0.2
		c2.5,0,4.6,2.1,4.6,4.6c0,1.7-0.9,3.2-2.3,4c0.6,0.2,1.3,0.6,1.9,1.2c1.2,1.1,2,2.7,2.4,4.7l-0.7,2.5c-0.2-3-1-5.1-2.4-6.5
		c-1.6-1.5-3.4-1.3-3.5-1.3c0,0-0.1,0-0.1,0c-0.1,0-1.9-0.2-3.5,1.3c-1.6,1.5-2.4,4.1-2.4,7.8c0,0.3,0,0.5,0,0.8c0,0,0,6.9,0,9.7
		h8.8h1.6c3.3-12,13.2-48.4,13.5-49.3c1.1,0,23.3,0,24.4,0c0.2,0.9,10.2,37.4,13.4,49.3h1.6h8.8c0-2.9,0-9.7,0-9.7
		c0-0.3,0-0.5,0-0.8C90.5,74.4,89.7,71.8,88,70.3z"/>
</g>
</svg>
