<?xml version="1.0" encoding="utf-8"?>
<!-- Generator: Adobe Illustrator 19.1.1, SVG Export Plug-In . SVG Version: 6.00 Build 0)  -->
<svg version="1.1" id="icn_x5F_coach" xmlns="http://www.w3.org/2000/svg" xmlns:xlink="http://www.w3.org/1999/xlink" x="0px"
	 y="0px" viewBox="0 0 108 108" style="enable-background:new 0 0 108 108;" xml:space="preserve">
<style type="text/css">
	.st0{fill:#FFFFFF;}
</style>
<g>
	<g>
		<g>
			<path class="st0" d="M72,72.4v-0.1C72,63.8,66,56.6,58,55c3.7-1.4,6.3-5.1,6.3-9.3c0-5.5-4.5-10-10-10c-5.5,0-10,4.5-10,10
				c0,4.2,2.6,7.8,6.3,9.3c-8,1.7-14.1,8.8-14.1,17.3v0.1H72z"/>
		</g>
		<g>
			<path class="st0" d="M90.2,67.8c0-6.4-4.5-11.8-10.6-13c2.8-1.1,4.8-3.8,4.8-7c0-4.1-3.4-7.5-7.5-7.5c-4.1,0-7.5,3.4-7.5,7.5
				c0,3.2,2,5.9,4.8,7c-1.9,0.4-3.7,1.2-5.2,2.3c3,3.2,5.3,6.8,6.4,10.8L90.2,67.8L90.2,67.8z"/>
		</g>
		<g>
			<path class="st0" d="M39.9,57.4c-1.6-1.3-3.5-2.3-5.6-2.7c2.8-1.1,4.8-3.8,4.8-7c0-4.1-3.4-7.5-7.5-7.5c-4.1,0-7.5,3.4-7.5,7.5
				c0,3.2,2,5.9,4.8,7c-6,1.3-10.6,6.6-10.6,13v0.1h15.6C34.7,63.8,36.9,60.3,39.9,57.4z"/>
		</g>
	</g>
</g>
</svg>
