<?xml version="1.0" encoding="utf-8"?>
<!-- Generator: Adobe Illustrator 19.1.1, SVG Export Plug-In . SVG Version: 6.00 Build 0)  -->
<svg version="1.1" id="icn_x5F_notificationmanager"
	 xmlns="http://www.w3.org/2000/svg" xmlns:xlink="http://www.w3.org/1999/xlink" x="0px" y="0px" viewBox="0 0 108 108"
	 style="enable-background:new 0 0 108 108;" xml:space="preserve">
<style type="text/css">
	.st0{fill:#FFFFFF;}
	.st1{fill-rule:evenodd;clip-rule:evenodd;fill:#FFFFFF;}
</style>
<g>
	<g>
		<path class="st0" d="M55.7,73.5l0-5.2l3.4-0.1c0.4-2.1,1.3-4.2,2.6-6L59.5,60l3.2-3.2L65,59c1.9-1.3,4-2,6.1-2.3l0.4-3.4l5.3,0
			l0.1,3.4c1.6,0.3,3.1,0.9,4.5,1.8c-0.4-1.4-0.7-2.8-0.9-3.8c-3.7-21.1-14.8-27.3-25.4-27.3c-10.6,0-20,6.1-25.6,27.1
			c-0.8,2.9-3.5,9.5-4.8,10.3c-1.3,0.8-3.6,2.7-3.6,4.2c0,5.3,14.6,9.6,33.2,9.6c2.3,0,4.5,0,6.7-0.2c-0.7-1.4-1.2-2.9-1.4-4.4
			L55.7,73.5z"/>
		<path class="st0" d="M62.8,85.7l-3.2-3.2l1.9-1.9c-2,0.3-4.5,0.9-7.3,0.8c-6.6,0-11.5-3-12.2,0.4c-0.8,3.3,4.6,8.4,12.1,8.5
			c6,0,10.7-3.2,11.9-6.2c-0.3-0.2-0.7-0.4-1-0.6L62.8,85.7z"/>
		<path class="st0" d="M55.7,22.7c1.8,0,3.3,1,4.2,2.4c1.8,0.2,3.4,1.2,5.1,1.7c-0.4-4.8-4.4-8.6-9.3-8.6c-4.7,0-8.7,3.5-9.3,8.1
			c1.7-0.6,3.4-1.1,5.1-1.3C52.4,23.6,54,22.7,55.7,22.7z"/>
	</g>
	<path class="st1" d="M84.7,63l-2.4-2.4l-2,2c-1.3-1-2.9-1.7-4.5-2l-0.1-2.6l-4,0l-0.3,2.6c-1.6,0.2-3.2,0.8-4.6,1.8l-1.7-1.7
		L62.7,63l1.7,1.7c-1,1.4-1.7,2.9-2,4.5l-2.6,0.1l0,4l2.9,0.5c0.3,1.6,0.9,3.2,1.8,4.6l-1.8,1.8l2.4,2.4l1.8-1.8
		c1.4,1,2.9,1.6,4.4,1.9l-0.1,2.5l4,0l0.5-3.1c1.6-0.3,3.1-0.8,4.5-1.7l2.1,2.1l2.4-2.4l-1.8-1.8c1-1.3,1.4-3,1.7-4.6l2.5,0.1l0-4
		l-2.8-0.3c-0.2-1.6-0.8-3.1-1.7-4.5L84.7,63z M76,74.1c-1.5,1.5-3.8,1.5-5.2,0c-1.5-1.5-1.5-3.8,0-5.3c1.4-1.4,3.8-1.4,5.3,0
		C77.4,70.3,77.4,72.6,76,74.1z"/>
</g>
</svg>
