<?xml version="1.0" encoding="utf-8"?>
<!-- Generator: Adobe Illustrator 19.1.1, SVG Export Plug-In . SVG Version: 6.00 Build 0)  -->
<svg version="1.1" id="icn_x5F_nycfitnessgram" xmlns="http://www.w3.org/2000/svg" xmlns:xlink="http://www.w3.org/1999/xlink"
	 x="0px" y="0px" viewBox="0 0 108 108" style="enable-background:new 0 0 108 108;" xml:space="preserve">
<style type="text/css">
	.st0{fill:#FFFFFF;}
</style>
<g>
	<g>
		<circle class="st0" cx="54" cy="36.7" r="3.3"/>
		<path class="st0" d="M35.3,54.1c3.5,2,5.5-0.9,7.1-3.8c0.1-0.3,0.2-0.6,0.3-0.8c1.2-2.4,2.5-4.7,3.8-7c-2.6-0.8-4.9-0.1-6.8,2.5
			c-1.5,2.1-5,0.1-3.5-2.1c3.6-5,8.9-6.3,14.3-3.1c0.2,0.1,0.4,0.3,0.5,0.5c0.1,0,0.2,0.1,0.2,0.1c0.2,0,0.4,0.1,0.7,0.3
			c3.3,2,6.4,1.6,8.7-1.6c1.5-2.1,5-0.1,3.5,2.1c-3,4.1-7.1,5.7-11.5,4.4c-1.4,2.3-2.7,4.7-3.9,7.2c1.8,0.9,3.6,2.1,5.1,3.5
			c0.1,0.1,0.1,0.1,0.2,0.2c0.3,0.2,0.6,0.5,0.9,0.9c1.1,2.2,2.1,4.4,3.2,6.6c1.1,2.4-2.5,4.1-3.7,1.7c-1-2.1-2-4.2-3-6.3
			c-0.1-0.1-0.3-0.2-0.4-0.3c-1.8-1.6-3.9-2.9-6.3-3.7c-0.1,0-0.2-0.1-0.3-0.1c-2.8,3.6-6.8,5.6-11.5,2.8
			C30.6,56.5,32.8,52.6,35.3,54.1z"/>
	</g>
	<g>
		<ellipse class="st0" cx="37.2" cy="30.7" rx="2.8" ry="2.8"/>
		<path class="st0" d="M21.3,45.6c2.9,1.7,4.7-0.8,6-3.3c0.1-0.2,0.1-0.5,0.3-0.7c1-2,2.1-4,3.2-6c-2.2-0.7-4.2-0.1-5.8,2.2
			c-1.3,1.8-4.3,0.1-3-1.8c3.1-4.3,7.6-5.4,12.2-2.7c0.2,0.1,0.3,0.2,0.5,0.4c0.1,0,0.1,0.1,0.2,0.1c0.2,0,0.4,0.1,0.6,0.2
			c2.8,1.7,5.5,1.4,7.4-1.4c1.3-1.8,4.3-0.1,3,1.8c-2.5,3.5-6,4.9-9.7,3.7c-1.2,2-2.3,4.1-3.3,6.1c1.6,0.8,3,1.8,4.4,3
			c0.1,0.1,0.1,0.1,0.2,0.2c0.3,0.2,0.6,0.4,0.7,0.8c0.9,1.9,1.8,3.8,2.7,5.7c1,2-2.2,3.5-3.1,1.5c-0.9-1.8-1.7-3.6-2.6-5.4
			c-0.1-0.1-0.2-0.1-0.3-0.2c-1.6-1.4-3.4-2.5-5.3-3.2c-0.1,0-0.2-0.1-0.3-0.1c-2.4,3.1-5.8,4.8-9.8,2.4
			C17.3,47.7,19.2,44.4,21.3,45.6z"/>
	</g>
	<g>
		<ellipse class="st0" cx="77.8" cy="41" rx="3.9" ry="4.3"/>
		<path class="st0" d="M55.6,63.7c4.1,2.6,6.6-1.2,8.5-5c0.1-0.4,0.2-0.7,0.4-1.1c1.4-3.1,2.9-6.1,4.5-9.1c-3.1-1.1-5.9-0.1-8.1,3.3
			c-1.8,2.8-6,0.1-4.2-2.7c4.3-6.6,10.7-8.2,17.1-4c0.3,0.2,0.5,0.4,0.7,0.6c0.1,0,0.2,0.1,0.3,0.1c0.3,0.1,0.5,0.2,0.8,0.3
			c4,2.6,7.7,2.1,10.4-2.1c1.8-2.8,6-0.1,4.2,2.7c-3.5,5.4-8.5,7.4-13.7,5.7c-1.6,3.1-3.2,6.2-4.7,9.3c2.2,1.2,4.2,2.8,6.1,4.6
			c0.1,0.1,0.2,0.2,0.2,0.2c0.4,0.2,0.8,0.6,1,1.2c1.3,2.9,2.5,5.7,3.8,8.6c1.4,3.1-3,5.3-4.4,2.3c-1.2-2.7-2.4-5.5-3.6-8.2
			c-0.2-0.1-0.3-0.2-0.5-0.4c-2.2-2.1-4.7-3.8-7.5-4.8c-0.1-0.1-0.3-0.1-0.4-0.2c-3.4,4.7-8.1,7.3-13.7,3.7
			C49.9,66.8,52.6,61.8,55.6,63.7z"/>
	</g>
</g>
</svg>
