<?xml version="1.0" encoding="utf-8"?>
<!-- Generator: Adobe Illustrator 19.1.1, SVG Export Plug-In . SVG Version: 6.00 Build 0)  -->
<svg version="1.1" id="icn_x5F_professionaldevelopment"
	 xmlns="http://www.w3.org/2000/svg" xmlns:xlink="http://www.w3.org/1999/xlink" x="0px" y="0px" viewBox="0 0 108 108"
	 style="enable-background:new 0 0 108 108;" xml:space="preserve">
<style type="text/css">
	.st0{fill-rule:evenodd;clip-rule:evenodd;fill:#FFFFFF;}
	.st1{fill:#FFFFFF;}
</style>
<g>
	<path class="st0" d="M46.6,30.3h29.3v17.3H54.6l-4-7.4c-0.5-1-1.5-1.6-2.5-1.7c-0.1,0-0.3-0.1-0.4-0.1h-0.4c0.8-1,1.2-2.3,1.2-3.7
		C48.5,33,47.8,31.4,46.6,30.3z"/>
	<rect x="40" y="39.9" class="st0" width="4.9" height="8.2"/>
	<g>
		<path class="st1" d="M49.2,40.9c-0.3-0.6-0.9-0.9-1.6-1l0,0h-4.1L42.9,41h-0.4h-0.4l-0.7-1.1h-4.2l0,0c-0.6,0.1-1.2,0.4-1.5,1
			l-5.1,9.8c0.4-0.1,0.8-0.1,1.2-0.1c1,0,1.9,0.2,2.8,0.7l2.9-5.4l0.3,9.4h9.5l0.3-9.6l3.4,6.2c1-0.8,2.3-1.2,3.6-1.3L49.2,40.9z"/>
		<circle class="st0" cx="42.5" cy="34.8" r="4.5"/>
	</g>
	<rect x="29.2" y="62.1" class="st0" width="5" height="8.4"/>
	<g>
		<path class="st0" d="M35.3,65c-0.5-0.9-0.2-2.1,0.8-2.6c0.9-0.5,2.1-0.2,2.6,0.8L45,74.6c0.5,0.9,0.2,2.1-0.8,2.6
			c-0.9,0.5-2.1,0.2-2.6-0.8L35.3,65z"/>
		<path class="st0" d="M24.8,63.2c0.5-0.9,1.7-1.3,2.6-0.8c0.9,0.5,1.3,1.7,0.8,2.6l-6.1,11.6c-0.5,0.9-1.7,1.3-2.6,0.8
			c-0.9-0.5-1.3-1.7-0.8-2.6L24.8,63.2z"/>
		<path class="st0" d="M26.4,62.1h4.3l0.7,1.1h0.4h0.4l0.7-1.1h4.2l-0.5,15.7h-9.7L26.4,62.1L26.4,62.1z M31.8,63.7h-0.5l-0.5,5.4
			l1,1l1-1l-0.5-5.4H31.8z"/>
		<circle class="st0" cx="31.8" cy="56.8" r="4.7"/>
	</g>
	<g>
		<rect x="52.1" y="62.1" class="st0" width="5" height="8.4"/>
		<path class="st0" d="M58.2,65C57.7,64,58,62.9,59,62.4c0.9-0.5,2.1-0.2,2.6,0.8l6.3,11.5c0.5,0.9,0.2,2.1-0.8,2.6
			c-0.9,0.5-2.1,0.2-2.6-0.8L58.2,65z"/>
		<path class="st0" d="M47.7,63.2c0.5-0.9,1.7-1.3,2.6-0.8c0.9,0.5,1.3,1.7,0.8,2.6L45,76.5c-0.5,0.9-1.7,1.3-2.6,0.8
			c-0.9-0.5-1.3-1.7-0.8-2.6L47.7,63.2z"/>
		<path class="st0" d="M49.3,62.1h4.3l0.7,1.1h0.4h0.4l0.7-1.1H60l-0.5,15.7h-9.7L49.3,62.1L49.3,62.1z M54.7,63.7h-0.5l-0.5,5.4
			l1,1l1-1l-0.5-5.4H54.7z"/>
		<circle class="st0" cx="54.7" cy="56.8" r="4.7"/>
	</g>
	<g>
		<rect x="74.5" y="62.1" class="st0" width="5" height="8.4"/>
		<path class="st0" d="M80.6,65c-0.5-0.9-0.2-2.1,0.8-2.6c0.9-0.5,2.1-0.2,2.6,0.8l6.3,11.5c0.5,0.9,0.2,2.1-0.8,2.6
			c-0.9,0.5-2.1,0.2-2.6-0.8L80.6,65z"/>
		<path class="st0" d="M70.1,63.2c0.5-0.9,1.7-1.3,2.6-0.8c0.9,0.5,1.3,1.7,0.8,2.6l-6.1,11.6c-0.5,0.9-1.7,1.3-2.6,0.8
			c-0.9-0.5-1.3-1.7-0.8-2.6L70.1,63.2z"/>
		<path class="st0" d="M71.6,62.1h4.3l0.7,1.1h0.4h0.4l0.7-1.1h4.2l-0.5,15.7h-9.7L71.6,62.1L71.6,62.1z M77.1,63.7h-0.5L76,69.1
			l1,1l1-1l-0.5-5.4H77.1z"/>
		<circle class="st0" cx="77.1" cy="56.8" r="4.7"/>
	</g>
</g>
</svg>
