<?xml version="1.0" encoding="utf-8"?>
<!-- Generator: Adobe Illustrator 19.1.1, SVG Export Plug-In . SVG Version: 6.00 Build 0)  -->
<svg version="1.1" id="icn_x5F_fitnessgramreport" xmlns="http://www.w3.org/2000/svg" xmlns:xlink="http://www.w3.org/1999/xlink"
	 x="0px" y="0px" viewBox="0 0 108 108" style="enable-background:new 0 0 108 108;" xml:space="preserve">
<style type="text/css">
	.st0{fill:#FFFFFF;}
</style>
<g>
	<path class="st0" d="M72.8,18.6H36.5c-6.4,0-11.7,5.2-11.7,11.7v48.6c0,6.4,5.2,11.7,11.7,11.7h36.2c6.4,0,11.7-5.2,11.7-11.7V30.3
		C84.5,23.8,79.2,18.6,72.8,18.6z M80.8,78.9c0,4.4-3.6,8-8,8H36.5c-4.4,0-8-3.6-8-8V30.3c0-4.4,3.6-8,8-8h36.2c4.4,0,8,3.6,8,8
		V78.9z"/>
	<path class="st0" d="M73,34.2H36.3c-1,0-1.8,0.8-1.8,1.8c0,1,0.8,1.8,1.8,1.8H73c1,0,1.8-0.8,1.8-1.8C74.8,35,74,34.2,73,34.2z"/>
	<path class="st0" d="M73,43.6H36.3c-1,0-1.8,0.8-1.8,1.8c0,1,0.8,1.8,1.8,1.8H73c1,0,1.8-0.8,1.8-1.8C74.8,44.4,74,43.6,73,43.6z"
		/>
	<path class="st0" d="M73,53H36.3c-1,0-1.8,0.8-1.8,1.8c0,1,0.8,1.8,1.8,1.8H73c1,0,1.8-0.8,1.8-1.8C74.8,53.8,74,53,73,53z"/>
	<path class="st0" d="M73,62.4H36.3c-1,0-1.8,0.8-1.8,1.8c0,1,0.8,1.8,1.8,1.8H73c1,0,1.8-0.8,1.8-1.8C74.8,63.2,74,62.4,73,62.4z"
		/>
	<path class="st0" d="M73,71.8H36.3c-1,0-1.8,0.8-1.8,1.8c0,1,0.8,1.8,1.8,1.8H73c1,0,1.8-0.8,1.8-1.8C74.8,72.6,74,71.8,73,71.8z"
		/>
</g>
</svg>
