<?xml version="1.0" encoding="utf-8"?>
<!-- Generator: Adobe Illustrator 19.1.1, SVG Export Plug-In . SVG Version: 6.00 Build 0)  -->
<svg version="1.1" id="icn_x5F_schoolweekly" xmlns="http://www.w3.org/2000/svg" xmlns:xlink="http://www.w3.org/1999/xlink"
	 x="0px" y="0px" viewBox="0 0 108 108" style="enable-background:new 0 0 108 108;" xml:space="preserve">
<style type="text/css">
	.st0{fill:#FFFFFF;}
</style>
<g>
	<path class="st0" d="M54.7,19.2l-36,26.9v42.8h72V46.1L54.7,19.2z M44.7,38.4c1.1-1.9,2.5-3.4,4.4-4.3c1.9-1,4-1.5,6.3-1.5
		c2,0,3.8,0.4,5.4,1.2c1.5,0.8,2.7,1.9,3.6,3.4c0.8,1.4,1.2,3,1.2,4.7c0,2-0.6,3.9-1.9,5.5c-1.6,2.1-3.6,3.1-6,3.1
		c-0.7,0-1.1-0.1-1.5-0.3c-0.3-0.2-0.6-0.6-0.7-1c-0.9,0.9-2,1.4-3.3,1.4c-1.3,0-2.4-0.5-3.3-1.4c-0.9-0.9-1.3-2.1-1.3-3.6
		c0-1.9,0.5-3.6,1.6-5.1c1.3-1.9,2.9-2.8,4.9-2.8c1.4,0,2.5,0.5,3.1,1.6l0.3-1.3h3.2l-1.8,8.6c-0.1,0.5-0.2,0.9-0.2,1.1
		c0,0.2,0,0.4,0.1,0.4C59,48,59.1,48,59.2,48c0.4,0,0.9-0.2,1.5-0.7c0.8-0.6,1.5-1.4,2-2.4c0.5-1,0.8-2.1,0.8-3.2
		c0-1.9-0.7-3.6-2.1-4.9c-1.4-1.3-3.4-2-6-2c-2.2,0-4,0.4-5.5,1.3c-1.5,0.9-2.6,2.1-3.4,3.7c-0.8,1.6-1.1,3.3-1.1,5
		c0,1.7,0.4,3.2,1.3,4.6c0.8,1.4,2,2.4,3.6,3c1.5,0.6,3.3,1,5.3,1c1.9,0,3.5-0.3,4.9-0.8c1.4-0.5,2.5-1.3,3.3-2.4h2.6
		c-0.8,1.6-2,2.9-3.7,3.8c-1.9,1-4.2,1.6-6.9,1.6c-2.6,0-4.9-0.5-6.8-1.3c-1.9-0.9-3.3-2.2-4.3-3.9c-0.9-1.7-1.4-3.6-1.4-5.7
		C43.1,42.4,43.7,40.4,44.7,38.4L44.7,38.4z M21.2,47l26.6,17.8L21.2,85.3V47z M23.2,86.7l31.5-24.3l31.5,24.3H23.2z M88.2,85.3
		L61.6,64.8L88.2,47V85.3z M56,40.4c0.4,0.5,0.6,1.2,0.6,2.1c0,0.8-0.2,1.7-0.5,2.6c-0.3,0.9-0.7,1.6-1.1,2.1
		c-0.3,0.3-0.6,0.6-0.9,0.8c-0.4,0.2-0.8,0.3-1.3,0.3c-0.6,0-1.1-0.2-1.5-0.7c-0.4-0.5-0.6-1.2-0.6-2.2c0-0.8,0.1-1.6,0.4-2.6
		c0.3-1,0.7-1.7,1.3-2.3c0.6-0.5,1.2-0.8,1.9-0.8C55.1,39.7,55.6,39.9,56,40.4L56,40.4z M56,40.4"/>
</g>
</svg>
