<?xml version="1.0" encoding="utf-8"?>
<!-- Generator: Adobe Illustrator 19.1.1, SVG Export Plug-In . SVG Version: 6.00 Build 0)  -->
<svg version="1.1" id="icn_x5F_search" xmlns="http://www.w3.org/2000/svg" xmlns:xlink="http://www.w3.org/1999/xlink" x="0px"
	 y="0px" viewBox="0 0 108 108" style="enable-background:new 0 0 108 108;" xml:space="preserve">
<style type="text/css">
	.st0{fill:#FFFFFF;}
</style>
<g>
	<g>
		<path class="st0" d="M39.1,42v5c0,0.8,0.6,1.4,1.4,1.4h25.7c0.8,0,1.4-0.6,1.4-1.4v-5c0-0.8-0.6-1.4-1.4-1.4H40.5
			C39.7,40.6,39.1,41.2,39.1,42z M61.6,42.9c0-0.1,0.1-0.3,0.3-0.3h3.1c0.1,0,0.3,0.1,0.3,0.3v3.1c0,0.1-0.1,0.3-0.3,0.3h-3.1
			c-0.1,0-0.3-0.1-0.3-0.3V42.9z"/>
		<path class="st0" d="M39.1,51.1v5c0,0.8,0.6,1.4,1.4,1.4h25.7c0.8,0,1.4-0.6,1.4-1.4v-5c0-0.8-0.6-1.4-1.4-1.4H40.5
			C39.7,49.7,39.1,50.3,39.1,51.1z M61.6,52c0-0.1,0.1-0.3,0.3-0.3h3.1c0.1,0,0.3,0.1,0.3,0.3V55c0,0.1-0.1,0.3-0.3,0.3h-3.1
			c-0.1,0-0.3-0.1-0.3-0.3V52z"/>
		<path class="st0" d="M39.1,60.1v5c0,0.8,0.6,1.4,1.4,1.4h25.7c0.8,0,1.4-0.6,1.4-1.4v-5c0-0.8-0.6-1.4-1.4-1.4H40.5
			C39.7,58.8,39.1,59.4,39.1,60.1z M61.6,61c0-0.1,0.1-0.3,0.3-0.3h3.1c0.1,0,0.3,0.1,0.3,0.3v3.1c0,0.1-0.1,0.3-0.3,0.3h-3.1
			c-0.1,0-0.3-0.1-0.3-0.3V61z"/>
	</g>
	<path class="st0" d="M29.5,77.4c12,12,30.7,13.1,43.9,3.3c0.2,0.5,0.6,0.9,1,1.3l8.3,8.3c2.1,2.1,5.4,2.1,7.5,0
		c2.1-2.1,2.1-5.4,0-7.5l-8.3-8.3c-0.4-0.4-0.8-0.7-1.3-1c9.8-13.2,8.7-31.9-3.3-43.9c-13.2-13.2-34.5-13.2-47.7,0
		C16.3,42.9,16.3,64.2,29.5,77.4z M34.2,34.4c10.6-10.6,27.7-10.6,38.3,0c10.6,10.6,10.6,27.7,0,38.3c-10.6,10.6-27.7,10.6-38.3,0
		C23.6,62.1,23.6,45,34.2,34.4z"/>
</g>
</svg>
