<?xml version="1.0" encoding="utf-8"?>
<!-- Generator: Adobe Illustrator 19.1.1, SVG Export Plug-In . SVG Version: 6.00 Build 0)  -->
<svg version="1.1" id="icn_x5F_teachnyc" xmlns="http://www.w3.org/2000/svg" xmlns:xlink="http://www.w3.org/1999/xlink" x="0px"
	 y="0px" viewBox="0 0 108 108" style="enable-background:new 0 0 108 108;" xml:space="preserve">
<style type="text/css">
	.st0{fill:#FFFFFF;}
	.st1{fill:none;stroke:#FFFFFF;stroke-width:4;stroke-linecap:round;stroke-linejoin:round;stroke-miterlimit:10;}
</style>
<g>
	<path class="st0" d="M61.6,78.5H47.4c-1.1,0-2,1-2,2.2c0,1.2,0.9,2.2,2,2.2h14.2c1.1,0,2-1,2-2.2C63.6,79.5,62.7,78.5,61.6,78.5z"
		/>
	<path class="st0" d="M59.1,85.6h-9.3c-1.1,0-2,1-2,2.2c0,1.2,0.9,2.2,2,2.2h9.3c1.1,0,2-1,2-2.2C61.1,86.6,60.2,85.6,59.1,85.6z"/>
	<g>
		<path class="st1" d="M54.5,20c-11.7,0-21.2,9.3-21.2,22.8c0,7.7,4.7,14.4,4.7,14.4c1.8,2.5,5.3,7.3,5.3,10.6v1.9
			c0,3.3,0.2,5.9,3.1,5.9h15.7c2.8,0,3-2.7,3-5.9v-1.5c0-3.3,3.6-8,5.4-10.5c0,0,5.1-6.9,5.1-14.8C75.6,29.3,66.2,20,54.5,20z"/>
	</g>
	<path class="st0" d="M60.9,39.2c-2.5,1.6-2.4,5.9-2.3,8.6c0,0.5,0,1.1,0,1.6c-2.4,1.4-4.7,1.4-7.5,0.6c0,0,0,0-0.1,0
		c0-0.7,0-1.4,0-2.1c0.1-2.1,0-4.3-1.1-6.1c-0.6-1-3-2.3-4.2-1.9c-3.4,1.2-1.4,6,0.2,8c1,1.3,2.4,2.3,3.9,2.9
		c0,3.6-0.2,13.3-0.2,16.8h1.2c0.2-3.4,0.1-13,0.2-16.4c2.2,0.6,4.6,0.6,6.6-0.2c0.3-0.1,0.7-0.3,1-0.4c0.1,2.4,0.2,4.8,0.4,7.1
		c0.1,1.2,0.1,8.6,0.1,9.9h1.3c-0.1-0.9-0.1-7.9-0.2-8.7c-0.1-3-0.3-5.9-0.4-8.9c2.3-1.3,4.4-3.3,5.1-5.9
		C65.5,42.3,63.2,37.7,60.9,39.2z M45.8,45.9c-1.3-2.1-0.6-3.4,1.9-4c1.8,0.8,1.9,2.5,2,4.2c0.1,1.2,0.1,2.4,0.1,3.6
		C48.2,48.8,46.8,47.5,45.8,45.9z M59.8,48.7c0-0.3,0-0.6,0-0.9c0-1.1,0.1-9.3,3-6.9C65.9,43.6,62.2,47.1,59.8,48.7z"/>
</g>
</svg>
