<?xml version="1.0" encoding="utf-8"?>
<!-- Generator: Adobe Illustrator 17.1.0, SVG Export Plug-In . SVG Version: 6.00 Build 0)  -->
<!DOCTYPE svg PUBLIC "-//W3C//DTD SVG 1.1//EN" "http://www.w3.org/Graphics/SVG/1.1/DTD/svg11.dtd">
<svg version="1.1" id="icn_x5F_techsupport" xmlns="http://www.w3.org/2000/svg" xmlns:xlink="http://www.w3.org/1999/xlink"
	 x="0px" y="0px" viewBox="0 0 800 800" enable-background="new 0 0 800 800" xml:space="preserve">
<g>
	<path fill="#FFFFFF" stroke="#000000" stroke-width="9" stroke-miterlimit="10" d="M614.1,343.7c0-2.2,0-4.4,0-6.7
		c0-113.3-91.9-205.2-205.2-205.2S203.7,223.7,203.7,337v0.7c1.5-0.7,3.7-0.7,5.2-0.7h23.7l0,0c0-97.8,79.3-176.3,176.3-176.3
		S585.2,240,585.2,337l0,0h12.6C605.2,337,610.4,340,614.1,343.7z"/>
	<path fill="#FFFFFF" stroke="#000000" stroke-width="9" stroke-miterlimit="10" d="M160,372.6c-11.9,0-21.5,9.6-21.5,21.5v92.6
		c0,11.9,9.6,21.5,21.5,21.5h28.1V372.6H160z"/>
	<path fill="#FFFFFF" stroke="#000000" stroke-width="9" stroke-miterlimit="10" d="M204.4,337.8c-9.6,2.2-16.3,11.1-16.3,20.7v14.1
		v135.6v14.1c0,11.9,9.6,21.5,21.5,21.5h44.4c11.9,0,21.5-9.6,21.5-21.5v-163c0-11.9-9.6-21.5-21.5-21.5h-21.5h-23.7
		C207.4,337,205.9,337.8,204.4,337.8z"/>
	<path fill="#FFFFFF" stroke="#000000" stroke-width="9" stroke-miterlimit="10" d="M648.1,372.6H620v135.6h16.3
		c-5.2,35.6-29.6,93.3-135.6,114.1v0.7v23v0.7c48.9-7.4,139.3-36.3,151.1-140c9.6-2.2,17.8-10.4,17.8-21.5v-91.1
		C669.6,382.2,660,372.6,648.1,372.6z"/>
	<path fill="#FFFFFF" stroke="#000000" stroke-width="9" stroke-miterlimit="10" d="M620,358.5c0-5.9-2.2-11.1-5.9-14.8
		c-3.7-4.4-9.6-6.7-15.6-6.7h-12.6h-31.9c-11.9,0-21.5,9.6-21.5,21.5v163c0,11.9,9.6,21.5,21.5,21.5h44.4c11.9,0,21.5-9.6,21.5-21.5
		v-14.1V372.6V358.5z"/>
	<path fill="#FFFFFF" stroke="#000000" stroke-width="9" stroke-miterlimit="10" d="M500.7,623.7V623c-0.7-10.4-8.9-17.8-19.3-17.8
		h-68.9c-10.4,0-19.3,8.9-19.3,19.3v23c0,10.4,8.9,19.3,19.3,19.3h68.9c10.4,0,18.5-8.1,19.3-18.5v-0.7V623.7z"/>
</g>
</svg>
