<?xml version="1.0" encoding="utf-8"?>
<!-- Generator: Adobe Illustrator 19.1.1, SVG Export Plug-In . SVG Version: 6.00 Build 0)  -->
<svg version="1.1" id="icn_x5F_wellnesscouncil" xmlns="http://www.w3.org/2000/svg" xmlns:xlink="http://www.w3.org/1999/xlink"
	 x="0px" y="0px" viewBox="0 0 108 108" style="enable-background:new 0 0 108 108;" xml:space="preserve">
<style type="text/css">
	.st0{fill:#FFFFFF;}
</style>
<g>
	<g>
		<circle class="st0" cx="63.3" cy="27.9" r="6.7"/>
		<path class="st0" d="M87.3,20.7c-0.1-1.5-1.3-2.7-2.9-2.7c-1.5,0.1-2.7,1.3-2.7,2.9c0.2,6.5-1.2,11.2-4.2,13.9
			c-2,1.8-4.3,2.4-6.2,2.7v-0.3c0-0.8-0.6-1.4-1.4-1.4H56.7c-0.8,0-1.4,0.6-1.4,1.4v0.2c-1.9-0.2-4.2-0.9-6.2-2.7
			c-3-2.7-4.5-7.4-4.2-13.9c0.1-1.5-1.1-2.8-2.7-2.9c-1.5-0.1-2.8,1.1-2.9,2.7C39,28.9,41.1,35,45.4,38.9c3.2,2.9,7.1,3.9,9.9,4.1
			v1.8v13.4v1.9v26.2c0,2,1.6,3.6,3.6,3.6c2,0,3.6-1.6,3.6-3.6V60.2h1.7v26.2c0,2,1.6,3.6,3.6,3.6c2,0,3.6-1.6,3.6-3.6V60.2v-1.9
			V44.9v-1.8c2.8-0.3,6.6-1.2,9.9-4.1C85.6,35.1,87.6,29,87.3,20.7z"/>
	</g>
	<g>
		<circle class="st0" cx="38.7" cy="41.4" r="4.2"/>
		<path class="st0" d="M50.9,62.8c-0.9-3.4-0.9-7-1.9-10.4c-0.5-1.6-1.3-3.4-2.6-4.4c-0.8-0.6-1.6-1-2.5-1.1
			c-0.1-0.4-0.4-0.6-0.8-0.6h-8.4c-0.5,0-0.9,0.4-0.9,0.9v0.4c-1.2,0.7-2.8,1.8-4.1,2.7c-1,0.8-2,1.6-3.1,2.3
			c-0.7-1.8-0.9-3.8-1-5.7c-0.1-2.2-3.6-2.3-3.5,0c0.1,3.2,0.6,6.3,2.2,9c0.5,0.9,1.5,1,2.4,0.6c2.6-1.2,4.6-3.3,7-4.6V52v8.5v1.2
			v16.5c0,1.3,1,2.3,2.3,2.3c1.3,0,2.3-1,2.3-2.3V61.6h1v16.5c0,1.3,1,2.3,2.3,2.3c1.3,0,2.3-1,2.3-2.3V61.6v-1.2V52v-1.5
			c0,0,0.1,0,0.1,0.1c0,0,0.2,0.2,0.3,0.2c0.1,0.1,0.2,0.2,0.3,0.3c0,0,0,0,0,0c0,0,0,0.1,0.1,0.2c0.2,0.3,0.3,0.6,0.5,0.9
			c0,0,0.1,0.2,0.1,0.3c0.1,0.2,0.1,0.3,0.2,0.5c0.1,0.4,0.3,0.9,0.4,1.3c0.8,3.1,0.9,6.5,1.7,9.6C48.1,66,51.5,65,50.9,62.8z"/>
	</g>
</g>
</svg>
