<svg xmlns="http://www.w3.org/2000/svg" viewBox="0 0 99.72 113.01"><title>catalog</title><circle cx="11.27" cy="9.33" r="7.98"/><path d="M38.28,22.14a3.76,3.76,0,0,0-3.76-3.76H3.76A3.76,3.76,0,0,0,0,22.14V40.92a3.76,3.76,0,0,0,3.76,3.76V63.9a3.76,3.76,0,0,0,7.51,0,3.76,3.76,0,0,0,7.51,0v-38H34.53A3.76,3.76,0,0,0,38.28,22.14Z"/><path d="M75.7,2.8H57.88A2.14,2.14,0,0,0,58,2.17,2.18,2.18,0,0,0,55.81,0H49.31a2.18,2.18,0,0,0-2.17,2.17,2.15,2.15,0,0,0,.1.63H29.42a2.17,2.17,0,0,0,0,4.34H73.53V44H29.42a2.17,2.17,0,0,0,0,4.34H75.7a2.18,2.18,0,0,0,2.17-2.17V5A2.18,2.18,0,0,0,75.7,2.8Z"/><path d="M54,51.93a1.7,1.7,0,0,0-.22-.26,1.71,1.71,0,0,0-2.38,0,1.79,1.79,0,0,0-.22.26L38.24,64.85a1.65,1.65,0,1,0,2.33,2.33l12-12,12,12a1.65,1.65,0,1,0,2.33-2.33Z"/><circle cx="16.75" cy="88.91" r="8.04"/><path d="M28.1,113V101.8A3.79,3.79,0,0,0,24.31,98H9.18A3.79,3.79,0,0,0,5.4,101.8V113Z"/><circle cx="88.37" cy="88.91" r="8.04"/><path d="M99.72,113V101.8A3.79,3.79,0,0,0,95.94,98H80.81A3.79,3.79,0,0,0,77,101.8V113Z"/><circle cx="64.93" cy="88.91" r="8.04"/><path d="M76.28,113V101.8A3.79,3.79,0,0,0,72.5,98H57.36a3.79,3.79,0,0,0-3.78,3.78V113Z"/><circle cx="40.99" cy="88.91" r="8.04"/><path d="M52.34,113V101.8A3.79,3.79,0,0,0,48.55,98H33.42a3.79,3.79,0,0,0-3.78,3.78V113Z"/></svg>