<svg xmlns="http://www.w3.org/2000/svg" viewBox="0 0 106.18 113.01"><title>champs</title><circle cx="53.2" cy="13.61" r="13.61"/><path d="M88.38,11.89a6.41,6.41,0,0,0-9.06,0L62.19,29H44L26.85,11.89a6.4,6.4,0,1,0-9.05,9.05l22.6,22.6v63.06a6.4,6.4,0,0,0,12.81,0,6.4,6.4,0,1,0,12.8,0V43.32L88.38,20.95A6.41,6.41,0,0,0,88.38,11.89Z"/><circle cx="14.37" cy="38.63" r="10.18"/><path d="M23.95,50.17H4.79A4.79,4.79,0,0,0,0,55v24A4.79,4.79,0,0,0,4.79,83.7v24.52a4.79,4.79,0,1,0,9.58,0,4.79,4.79,0,1,0,9.58,0V83.7a4.79,4.79,0,0,0,4.79-4.79V55A4.79,4.79,0,0,0,23.95,50.17Z"/><circle cx="91.81" cy="38.63" r="10.18"/><path d="M101.39,50.17H82.23A4.79,4.79,0,0,0,77.44,55v24a4.79,4.79,0,0,0,4.79,4.79v24.52a4.79,4.79,0,1,0,9.58,0,4.79,4.79,0,1,0,9.58,0V83.7a4.79,4.79,0,0,0,4.79-4.79V55A4.79,4.79,0,0,0,101.39,50.17Z"/></svg>