<svg xmlns="http://www.w3.org/2000/svg" viewBox="0 0 77.72 113.01"><title>council</title><circle cx="38.86" cy="13.61" r="13.6"/><path d="M51.66,29H26.05a6.41,6.41,0,0,0-6.4,6.4v32a6.41,6.41,0,0,0,6.4,6.4v32.77a6.4,6.4,0,0,0,12.8,0,6.4,6.4,0,1,0,12.8,0V73.84a6.41,6.41,0,0,0,6.4-6.4v-32A6.41,6.41,0,0,0,51.66,29Z"/><circle cx="65.09" cy="16.72" r="8.94"/><circle cx="12.63" cy="16.72" r="8.94"/><path d="M73.51,26.86H56.67a4,4,0,0,0-.9.1,9.42,9.42,0,0,1,5.31,8.47v32a9.43,9.43,0,0,1-4.41,8v2.44a4.21,4.21,0,1,0,8.42,0,4.21,4.21,0,1,0,8.42,0V56.32a4.22,4.22,0,0,0,4.21-4.21v-21A4.22,4.22,0,0,0,73.51,26.86Z"/><path d="M16.63,67.44v-32A9.42,9.42,0,0,1,21.95,27a4.07,4.07,0,0,0-.9-.1H4.21A4.22,4.22,0,0,0,0,31.07v21a4.22,4.22,0,0,0,4.21,4.21V77.86a4.21,4.21,0,1,0,8.42,0,4.21,4.21,0,0,0,8.42,0V75.42A9.43,9.43,0,0,1,16.63,67.44Z"/></svg>