<svg xmlns="http://www.w3.org/2000/svg" viewBox="0 0 92.51 113.01"><title>cybershift</title><path d="M46.25,20.51A46.25,46.25,0,1,0,92.51,66.76,46.25,46.25,0,0,0,46.25,20.51Zm0,83.39A37.14,37.14,0,1,1,83.39,66.76,37.18,37.18,0,0,1,46.25,103.9Z"/><path d="M57.19,0H35.32a1.83,1.83,0,0,0-1.82,1.82V12.76a1.83,1.83,0,0,0,1.82,1.82h5.47v2.89a1.83,1.83,0,0,0,1.82,1.82H49.9a1.83,1.83,0,0,0,1.82-1.82V14.58h5.47A1.83,1.83,0,0,0,59,12.76V1.82A1.83,1.83,0,0,0,57.19,0Z"/><path d="M14.87,27.07a1.83,1.83,0,0,1,0,2.58l-5.12,5.2a1.83,1.83,0,0,1-2.58,0L2,29.74a1.83,1.83,0,0,1,0-2.58L7.1,22a1.83,1.83,0,0,1,2.58,0Z"/><path d="M90.51,27.07a1.83,1.83,0,0,1,0,2.58l-5.12,5.2a1.83,1.83,0,0,1-2.58,0l-5.19-5.12a1.83,1.83,0,0,1,0-2.58L82.74,22a1.83,1.83,0,0,1,2.58,0Z"/><circle cx="46.25" cy="66.76" r="5.47"/><polygon points="49.02 59.01 54.03 64.18 66.18 47.31 49.02 59.01"/></svg>