<svg xmlns="http://www.w3.org/2000/svg" viewBox="0 0 134.29 113.01"><title>dashboard</title><rect y="20.21" width="13.96" height="20.21"/><rect x="20.06" width="13.96" height="40.42"/><rect x="40.11" y="13.81" width="13.96" height="26.61"/><rect x="60.17" y="26.56" width="13.96" height="13.86"/><rect x="80.22" y="13.81" width="13.96" height="26.61"/><rect x="100.28" width="13.96" height="40.42"/><rect x="120.33" y="24.13" width="13.96" height="16.29"/><path d="M87.14,89.63h0v1.44h0a18.33,18.33,0,0,0,27.49,15.17l.63-.36-8.52-14.76H124.3v-.72a18.31,18.31,0,0,0-27.23-16l-.15-.27-.63.37A18.42,18.42,0,0,0,87.14,89.63Z"/><path d="M124.3,112.09l.63-.36a18.41,18.41,0,0,0,9.18-15.89v-.72H114.5Z"/><path d="M3,106.22H8.23v4a2.78,2.78,0,1,0,5.56,0v-4H63.19a2.78,2.78,0,0,0,0-5.56H13.78V67.76a2.78,2.78,0,0,0-5.56,0v32.89H3a2.78,2.78,0,0,0,0,5.56Z"/><path d="M34.73,76.76a2.78,2.78,0,0,0-3.74.4L17.25,92.83a2.78,2.78,0,1,0,4.18,3.66L33.48,82.75,42,89.06a2.78,2.78,0,0,0,3.76-.41L59.29,73a2.78,2.78,0,1,0-4.2-3.63L43.23,83.06Z"/></svg>