<svg xmlns="http://www.w3.org/2000/svg" viewBox="0 0 127.14 113.01"><title>data</title><path d="M41.68,92.4H85.46a2.79,2.79,0,0,0,2.78-2.78v-10a2.79,2.79,0,0,0-2.78-2.78H41.68a2.79,2.79,0,0,0-2.78,2.78v10A2.79,2.79,0,0,0,41.68,92.4Zm4.48-10a2.23,2.23,0,1,1-2.23,2.23A2.23,2.23,0,0,1,46.16,82.38Z"/><path d="M41.68,73.75H85.46A2.79,2.79,0,0,0,88.24,71v-10a2.79,2.79,0,0,0-2.78-2.78H41.68a2.79,2.79,0,0,0-2.78,2.78V71A2.79,2.79,0,0,0,41.68,73.75Zm4.48-10A2.23,2.23,0,1,1,43.93,66,2.23,2.23,0,0,1,46.16,63.73Z"/><path d="M41.68,55.1H85.46a2.79,2.79,0,0,0,2.78-2.78v-10a2.79,2.79,0,0,0-2.78-2.78H41.68a2.79,2.79,0,0,0-2.78,2.78v10A2.79,2.79,0,0,0,41.68,55.1Zm4.48-10a2.23,2.23,0,1,1-2.23,2.23A2.23,2.23,0,0,1,46.16,45.08Z"/><path d="M123.1,0H4A4,4,0,0,0,0,4V109a4,4,0,0,0,4,4H123.1a4,4,0,0,0,4-4V4A4,4,0,0,0,123.1,0ZM97.88,8.74a5.38,5.38,0,1,1-5.39,5.38A5.38,5.38,0,0,1,97.88,8.74Zm-15.81,0a5.38,5.38,0,1,1-5.38,5.38A5.38,5.38,0,0,1,82.07,8.74Zm37,96.2H8.07V28.26h111Zm-5.37-85.43a5.38,5.38,0,1,1,5.37-5.38A5.38,5.38,0,0,1,113.69,19.51Z"/></svg>