<svg xmlns="http://www.w3.org/2000/svg" viewBox="0 0 112.59 113.01"><title>event</title><rect x="21.07" y="65.83" width="13.87" height="13.87"/><rect x="39.93" y="65.83" width="13.87" height="13.87"/><rect x="58.79" y="65.83" width="13.87" height="13.87"/><rect x="77.65" y="65.83" width="13.87" height="13.87"/><rect x="21.07" y="84.69" width="13.87" height="13.87"/><rect x="39.93" y="84.69" width="13.87" height="13.87"/><rect x="58.79" y="84.69" width="13.87" height="13.87"/><rect x="39.93" y="46.97" width="13.87" height="13.87"/><rect x="58.79" y="46.97" width="13.87" height="13.87"/><rect x="77.65" y="46.97" width="13.87" height="13.87"/><path d="M109,12.93H92.51v7.44a7.1,7.1,0,0,1-14.19,0V12.93h-44v7.44a7.09,7.09,0,0,1-14.19,0V12.93H3.57A3.57,3.57,0,0,0,0,16.51v92.93A3.57,3.57,0,0,0,3.57,113H109a3.57,3.57,0,0,0,3.57-3.57V16.51A3.58,3.58,0,0,0,109,12.93Zm-3.58,92.93H7.15V38h98.29Z"/><path d="M85.41,0a4.58,4.58,0,0,0-4.59,4.57v15.8a4.59,4.59,0,0,0,9.19,0V4.57A4.58,4.58,0,0,0,85.41,0Z"/><path d="M27.17,0a4.58,4.58,0,0,0-4.59,4.57v15.8a4.59,4.59,0,0,0,9.19,0V4.57A4.58,4.58,0,0,0,27.17,0Z"/></svg>