<svg xmlns="http://www.w3.org/2000/svg" viewBox="0 0 146.7 113.01"><title>feedback</title><path d="M60.55,90.85a67.82,67.82,0,0,1-16.74-2.07A12,12,0,0,0,34.95,90,148.83,148.83,0,0,1,17.6,98.38a.37.37,0,0,1-.48-.5,54,54,0,0,0,4.15-13.81,10.4,10.4,0,0,0-3-9.13C10.51,67.37,6.4,58.27,6.4,48.62,6.4,25.34,30.69,6.4,60.55,6.4,76.84,6.4,91.46,12,101.4,21a60.41,60.41,0,0,1,10.91,2.43C101.68,9.36,82.48,0,60.55,0,27.11,0,0,21.77,0,48.62,0,60.36,5.19,71.12,13.81,79.52A4,4,0,0,1,15,83,44.44,44.44,0,0,1,4.77,105.34a1.86,1.86,0,0,0,1.4,3.08l.29,0c8.4-1.32,20.87-6.8,31.63-12.87A5.6,5.6,0,0,1,42.23,95a74.19,74.19,0,0,0,18.32,2.27A75.3,75.3,0,0,0,72,96.36a53.67,53.67,0,0,1-11-5.52Z"/><path d="M133.46,90.29a3,3,0,0,1,.87-2.6c7.71-7.43,12.36-17,12.36-27.41,0-23.66-23.89-42.85-53.36-42.85S40,36.61,40,60.28s23.89,42.85,53.36,42.85a65.35,65.35,0,0,0,16.36-2.06,4.34,4.34,0,0,1,3.23.43c9.67,5.48,21,10.43,28.41,11.5a1.52,1.52,0,0,0,1.35-2.51A39.2,39.2,0,0,1,133.46,90.29ZM68.17,67.12a5.34,5.34,0,1,1,5.34-5.34A5.34,5.34,0,0,1,68.17,67.12Zm26.68,0a5.34,5.34,0,1,1,5.34-5.34A5.34,5.34,0,0,1,94.85,67.12Zm26.68,0a5.34,5.34,0,1,1,5.34-5.34A5.34,5.34,0,0,1,121.52,67.12Z"/></svg>