<svg xmlns="http://www.w3.org/2000/svg" viewBox="0 0 101.51 113.01"><title>fitnessgram</title><path d="M33.66,63.71l-5,8.86H5.84a5.84,5.84,0,0,0,0,11.68H32a5.84,5.84,0,0,0,5.08-3l5.4-9.51-8.31-7.5A5.79,5.79,0,0,1,33.66,63.71Z"/><path d="M94.63,22.22,77.54,29.11,73.32,27.7l-21.09-7-16.82-5.6L35.18,15a5,5,0,0,0-.53-.12l-.46-.06H33.7l-.49,0-.46.08-.47.13-.44.17-.45.22-.39.24a5,5,0,0,0-.43.33c-.06.05-.13.09-.19.15L17.89,28.08a5,5,0,0,0,6.9,7.26l10.31-9.8,9.46,3.15L43.39,31.4,35.28,50.24a10.76,10.76,0,0,0,4.8,13.7l4.55,4.11.67.61L56.81,79,47.44,105.2a5.84,5.84,0,0,0,11,3.94L69.13,79.29A5.84,5.84,0,0,0,67.54,73L56.46,63l-2.57-2.32A10.7,10.7,0,0,0,55,58.73L65,35.49l8,2.66,3.12,1c.24.07.42.11.6.15l.22,0a4.79,4.79,0,0,0,1.63,0l.26-.06a5,5,0,0,0,.61-.18l.14,0,18.79-7.57a5,5,0,0,0-3.74-9.29Z"/><path d="M60.57,18.34A9.87,9.87,0,1,0,56.5,6.13,9.87,9.87,0,0,0,60.57,18.34Z"/></svg>