<svg xmlns="http://www.w3.org/2000/svg" viewBox="0 0 131.34 113.01"><title>focus</title><path d="M65.59,113A56.6,56.6,0,0,1,9.06,56.48h14A42.52,42.52,0,0,0,105.93,70l13.3,4.44A56.47,56.47,0,0,1,65.59,113Z"/><polygon points="32.15 59.5 16.08 43.42 0 59.5 32.15 59.5"/><path d="M122.28,56.53h-14A42.51,42.51,0,0,0,25.42,43.06l-13.3-4.45A56.54,56.54,0,0,1,122.28,56.53Z"/><polygon points="99.19 53.52 115.27 69.59 131.34 53.52 99.19 53.52"/><circle cx="65.67" cy="33.03" r="7.44"/><path d="M72.68,41.47h-14a3.51,3.51,0,0,0-3.5,3.5V62.49a3.51,3.51,0,0,0,3.5,3.5V83.92a3.5,3.5,0,0,0,7,0,3.5,3.5,0,1,0,7,0V66a3.51,3.51,0,0,0,3.5-3.5V45A3.51,3.51,0,0,0,72.68,41.47Z"/><circle cx="80.03" cy="34.74" r="4.89"/><circle cx="51.32" cy="34.74" r="4.89"/><path d="M84.63,40.28H75.42a2.21,2.21,0,0,0-.49.06A5.16,5.16,0,0,1,77.84,45V62.49a5.16,5.16,0,0,1-2.41,4.37v1.34a2.3,2.3,0,1,0,4.6,0,2.3,2.3,0,1,0,4.6,0V56.4a2.31,2.31,0,0,0,2.3-2.3V42.59A2.31,2.31,0,0,0,84.63,40.28Z"/><path d="M53.51,62.49V45a5.15,5.15,0,0,1,2.91-4.63,2.23,2.23,0,0,0-.49-.06H46.71a2.31,2.31,0,0,0-2.3,2.3V54.1a2.31,2.31,0,0,0,2.3,2.3V68.19a2.3,2.3,0,1,0,4.6,0,2.3,2.3,0,0,0,4.61,0V66.85A5.16,5.16,0,0,1,53.51,62.49Z"/></svg>