<svg xmlns="http://www.w3.org/2000/svg" viewBox="0 0 127.14 113.01"><title>material</title><path d="M65.48,44H32.91V93.23H94.23V44H65.48ZM61.66,89.41H36.73V81.14H61.66Zm0-12.1H36.73V70.54H61.66Zm0-10.6H36.73V58.86H61.66Zm0-11.67H36.73v-7.2H61.66ZM76.85,89.41H65.48V81.14H76.85Zm0-12.1H65.48V70.54H76.85Zm0-10.6H65.48V58.86H76.85Zm0-11.67H65.48v-7.2H76.85ZM90.41,89.41H80.66V81.14h9.75Zm0-12.1H80.66V70.54h9.75Zm0-10.6H80.66V58.86h9.75Zm0-11.67H80.66v-7.2h9.75Z"/><path d="M123.1,0H4A4,4,0,0,0,0,4V109a4,4,0,0,0,4,4H123.1a4,4,0,0,0,4-4V4A4,4,0,0,0,123.1,0ZM97.88,8.74a5.38,5.38,0,1,1-5.39,5.38A5.38,5.38,0,0,1,97.88,8.74Zm-15.81,0a5.38,5.38,0,1,1-5.38,5.38A5.38,5.38,0,0,1,82.07,8.74Zm37,96.2H8.07V28.26h111Zm-5.37-85.43a5.38,5.38,0,1,1,5.37-5.38A5.38,5.38,0,0,1,113.69,19.51Z"/></svg>