<svg xmlns="http://www.w3.org/2000/svg" viewBox="0 0 127.14 113.01"><title>program</title><rect x="41.45" y="39.86" width="10.16" height="10.16" rx="2.54" ry="2.54"/><rect x="55.42" y="43.04" width="30.27" height="3.81" rx="1.27" ry="1.27"/><rect x="41.45" y="61.67" width="10.16" height="10.16" rx="2.54" ry="2.54"/><rect x="55.42" y="64.85" width="30.27" height="3.81" rx="1.27" ry="1.27"/><rect x="41.45" y="83.47" width="10.16" height="10.16" rx="2.54" ry="2.54"/><rect x="55.42" y="86.65" width="30.27" height="3.81" rx="1.27" ry="1.27"/><path d="M123.1,0H4A4,4,0,0,0,0,4V109a4,4,0,0,0,4,4H123.1a4,4,0,0,0,4-4V4A4,4,0,0,0,123.1,0ZM97.88,8.74a5.38,5.38,0,1,1-5.39,5.38A5.38,5.38,0,0,1,97.88,8.74Zm-15.81,0a5.38,5.38,0,1,1-5.38,5.38A5.38,5.38,0,0,1,82.07,8.74Zm37,96.2H8.07V28.26h111Zm-5.37-85.43a5.38,5.38,0,1,1,5.37-5.38A5.38,5.38,0,0,1,113.69,19.51Z"/></svg>