<svg xmlns="http://www.w3.org/2000/svg" viewBox="0 0 112.97 113.01"><title>report</title><path d="M58.7,113A56.52,56.52,0,0,0,113,58.75H58.7Z"/><path d="M113,54.32A56.51,56.51,0,0,0,18.12,15L57.41,54.32H113Z"/><path d="M25.3,28.47,15,18.16c-.58.62-1.7,2-1.84,2.16q-1.27,1.51-2.41,3.09c-.18.25-.36.48-.53.73A56,56,0,0,0,3.28,37.53l-.06.15h0A56.72,56.72,0,0,0,3,74.74H3c.18.52.4,1,.59,1.54s.46,1.25.72,1.87.57,1.29.86,1.94c.22.47.4,1,.64,1.43l0,0a56.73,56.73,0,0,0,20.45,22.79v0c.89.56,1.8,1.09,2.72,1.6l.64.37q1.69.91,3.41,1.7c.5.23,1,.43,1.52.64.72.3,1.43.6,2.15.87s1.18.41,1.77.61,1.35.45,2,.65,1.23.34,1.85.5,1.4.35,2.11.5l1.8.37c.8.15,1.61.26,2.43.38.51.07,1,.16,1.54.21,1.35.15,2.7.26,4,.31V57.45Zm8.36,12.21H5A53.22,53.22,0,0,1,9,31.2H24.17ZM15.11,22.14l0,0h0l6.28,6.29H10.56A54.74,54.74,0,0,1,15.11,22.14ZM4.26,43.41H36.38l2.32,2.32h0l5.54,5.54h0l1.62,1.62H2.75A53.6,53.6,0,0,1,4.26,43.41ZM48.59,55.62l.85.85h0l2.1,2.1V65.1H3.32a53.08,53.08,0,0,1-.68-9.49ZM39.83,80v0H51.55v9.49H13.9A56.25,56.25,0,0,1,7.8,80Zm5.92-2.71H6.82a53.31,53.31,0,0,1-3-9.49H51.55v9.49ZM16.2,92.25H51.55v9.49H27.27A56.7,56.7,0,0,1,16.2,92.25ZM32,104.47H51.55v5.64A53.63,53.63,0,0,1,32,104.47Z"/></svg>