<svg xmlns="http://www.w3.org/2000/svg" viewBox="0 0 113.02 113.01"><title>setting</title><path d="M113,68V45H100.89A45.44,45.44,0,0,0,96,33.23l8.56-8.56L88.35,8.43,79.78,17A45.22,45.22,0,0,0,68,12.13V0H45V12.13A45.2,45.2,0,0,0,33.23,17L24.66,8.43,8.44,24.67,17,33.23A45.23,45.23,0,0,0,12.13,45H0V68H12.13A45.11,45.11,0,0,0,17,79.78L8.44,88.35l16.23,16.23L33.23,96A45.22,45.22,0,0,0,45,100.89V113H68V100.89A45.31,45.31,0,0,0,79.78,96l8.57,8.57,16.23-16.23L96,79.78A45.41,45.41,0,0,0,100.89,68ZM56.51,95.22A38.72,38.72,0,1,1,95.23,56.51,38.76,38.76,0,0,1,56.51,95.22Z"/><circle cx="56.51" cy="45.57" r="12.37"/><path d="M74,65.41a5.83,5.83,0,0,0-5.82-5.82H44.87A5.83,5.83,0,0,0,39,65.41V79.82H74Z"/></svg>