<svg xmlns="http://www.w3.org/2000/svg" viewBox="0 0 135.78 113.01"><title>solution</title><path d="M92.61,47.4v-10H87.3a19.65,19.65,0,0,0-2.13-5.16l3.75-3.75-7.1-7.1L78.07,25.1A19.81,19.81,0,0,0,72.91,23V17.66h-10V23a19.82,19.82,0,0,0-5.16,2.13L54,21.35l-7.1,7.1,3.75,3.75a19.68,19.68,0,0,0-2.13,5.16H43.17v10h5.31a19.72,19.72,0,0,0,2.13,5.16l-3.75,3.75,7.1,7.1,3.75-3.75a19.77,19.77,0,0,0,5.16,2.13v5.3h10V61.8a19.79,19.79,0,0,0,5.16-2.13l3.75,3.75,7.1-7.1-3.75-3.75A19.75,19.75,0,0,0,87.3,47.4Zm-14.71-5a10,10,0,1,1-10-10A10,10,0,0,1,77.91,42.38Z"/><rect x="49.95" y="100.67" width="35.88" height="7.34"/><path d="M94.41,109.65H41.36a2.44,2.44,0,0,0-2.43,2.45V113H96.85v-.91A2.44,2.44,0,0,0,94.41,109.65Z"/><path d="M133.37.16a3.34,3.34,0,0,0-1-.16H3.38a3.34,3.34,0,0,0-1,.16A3.36,3.36,0,0,0,0,3.38V95.22a3.35,3.35,0,0,0,2.4,3.21,3.35,3.35,0,0,0,1,.16h129a3.44,3.44,0,0,0,3.38-3.37V3.38A3.36,3.36,0,0,0,133.37.16Zm-125,76.9V8.13H127.36V77.06Z"/></svg>