<svg xmlns="http://www.w3.org/2000/svg" viewBox="0 0 68.35 113.01"><title>teach</title><path d="M50.87,92.59H17.48a2.63,2.63,0,0,0,0,5.23H50.87a2.63,2.63,0,0,0,0-5.23Z"/><path d="M49.83,105H18.53a2.65,2.65,0,0,0,0,5.23h2.7a2.18,2.18,0,0,0-.19.88A1.8,1.8,0,0,0,22.68,113h23a1.8,1.8,0,0,0,1.64-1.92,2.18,2.18,0,0,0-.19-.88h2.7a2.65,2.65,0,0,0,0-5.23Z"/><path d="M34.3,0h-.24A34.1,34.1,0,0,0,0,34.06c0,13.5,4.14,21.73,8.52,30.45a100.19,100.19,0,0,1,7.13,16.86,2.61,2.61,0,0,0,.23,5.21H52.48a2.61,2.61,0,0,0,.23-5.21,100.13,100.13,0,0,1,7.13-16.86c4.38-8.72,8.51-17,8.51-30.45A34.1,34.1,0,0,0,34.3,0ZM54.74,61.94A100.79,100.79,0,0,0,46.8,81.35H21.56a100.93,100.93,0,0,0-7.94-19.41C9.37,53.5,5.71,46.21,5.71,34.06a28.26,28.26,0,0,1,8.61-20.33l.19,0a28,28,0,0,1,39.34,0l.19,0a28.26,28.26,0,0,1,8.61,20.33C62.65,46.21,59,53.5,54.74,61.94Z"/><path d="M50.82,37.68a2.5,2.5,0,0,0-3.31,1A9.71,9.71,0,0,1,43.88,40c-1,.12-1.84-.74-2.37-1.48a9.16,9.16,0,0,1-.82-1.42l0-.06c2-2.85,3.68-6.95,2.46-9.2a2.87,2.87,0,0,0-2.72-1.44,3.25,3.25,0,0,0-2.86,2c-1,2-.82,5.36.21,8.31-1.5,1.72-3.45,3.19-5.27,2.87a5,5,0,0,1-3.14-2.1c1.64-2,2.73-4.34,2.68-6.25a3.57,3.57,0,0,0-2.71-3.53,2.87,2.87,0,0,0-3,.74c-1.56,1.62-1.4,4.9-.56,7.42a12.26,12.26,0,0,0,.51,1.29,9,9,0,0,1-3.14,2,3.67,3.67,0,0,1-2,.18l-.31-.62A2.48,2.48,0,0,0,18,37.49a1.08,1.08,0,0,0-.37.1s-.08,0-.11,0,0,0-.06.05l-.07,0-.06.07A2.49,2.49,0,0,0,16.43,41l9.09,18,0,17.38h5l0-18a2.56,2.56,0,0,0-.27-1.13L22.48,41.84A7.07,7.07,0,0,0,24,41.54a11.45,11.45,0,0,0,3.67-2.23,7.32,7.32,0,0,0,4.48,2.75c2.24.37,4.62-.66,6.8-2.86a8.66,8.66,0,0,0,.52.81,5.31,5.31,0,0,0,4.19,2.53,4.45,4.45,0,0,0,.54,0,9.48,9.48,0,0,0,1.5-.32L38,57.24a2.47,2.47,0,0,0-.28,1.13l0,18h5l0-17.35L51.91,41A2.5,2.5,0,0,0,50.82,37.68Zm-22.64-7.5a.3.3,0,0,1,.25-.1,1.23,1.23,0,0,1,1.16,1.23A7.05,7.05,0,0,1,28.17,35C27.41,32.66,27.68,30.7,28.18,30.18ZM39.7,34a8.17,8.17,0,0,1,.16-4.5c.27-.56.55-.57.71-.57h.06c.28,0,.32.07.34.13C41.33,29.7,41,31.72,39.7,34Z"/></svg>