<svg xmlns="http://www.w3.org/2000/svg" viewBox="0 0 99.02 113.01"><title>tech</title><path d="M71.16,69a13.89,13.89,0,0,0-1.1-1l-8-8a3.76,3.76,0,0,0-5.32,5.32l.72.72a8,8,0,0,0-.95.47l-4.1-4.1a3.76,3.76,0,1,0-5.32,5.32l2.39,2.39-1,.46L44,66a3.76,3.76,0,0,0-5.32,5.32l3.51,3.51a7.69,7.69,0,0,0-.56.9L29.31,63.44A3.76,3.76,0,1,0,24,68.76l19.5,19.49c6.65,7.88.3,10.13-2.63,12.55-5,4.15-5.67,8.48-4.07,10.08.37.37,3.44,3.11,4.6,1.59.71-.94,5.44-6.66,10.64-6.94,4-.21,10.31-1.12,13.09-1.54l9,9L92,95.13l-9.54-9.54a20.53,20.53,0,0,0-4.69-9.44Z"/><path d="M35.55,65.44l-2.7-2.72A7.39,7.39,0,0,0,31.11,60a7.52,7.52,0,1,0-8.75,12L25.44,75a9.78,9.78,0,1,1,10.1-9.57Z"/><path d="M95.88,0H3.14A3.14,3.14,0,0,0,0,3.14V84.88A3.14,3.14,0,0,0,3.14,88H22.7l.07-.07H35.91l-6.17-6.24H15.81v0H6.28V22H92.74V81.73H85.49L91.28,88h4.6A3.14,3.14,0,0,0,99,84.88V3.14A3.14,3.14,0,0,0,95.88,0Zm-32,15.19A4.19,4.19,0,1,1,68.12,11,4.18,4.18,0,0,1,63.92,15.19Zm12.32,0A4.19,4.19,0,1,1,80.42,11,4.19,4.19,0,0,1,76.24,15.19Zm12.31,0A4.19,4.19,0,1,1,92.74,11,4.19,4.19,0,0,1,88.55,15.19Z"/></svg>