<svg xmlns="http://www.w3.org/2000/svg" viewBox="0 0 89.24 113.01"><title>tracker</title><circle cx="44.62" cy="10.12" r="10.12"/><path d="M89.24,81.83,78.3,70.89v3.52h-7c-3.22-3.16-8.56-5.67-15.07-7.05V72a34.15,34.15,0,0,1,7.56,2.66c3.95,2,6.3,4.5,6.3,6.7s-2.36,4.7-6.3,6.7c-5,2.52-12,4-19.17,4s-14.2-1.44-19.17-4c-3.95-2-6.3-4.5-6.3-6.7s2.36-4.7,6.3-6.7A34.17,34.17,0,0,1,33,72V67.36c-6.51,1.38-11.85,3.9-15.07,7.05h-7V70.89L0,81.83,10.94,92.77V89.22h8c4,3.38,10.57,5.89,18.32,6.89v6H33.68L44.62,113l10.94-10.94H52v-6c7.74-1,14.27-3.51,18.29-6.89h8v3.55Z"/><path d="M54.15,21.59H35.09a4.77,4.77,0,0,0-4.76,4.76V50.17a4.77,4.77,0,0,0,4.76,4.76V79.32a4.76,4.76,0,1,0,9.53,0,4.76,4.76,0,1,0,9.53,0V54.94a4.77,4.77,0,0,0,4.76-4.76V26.36A4.77,4.77,0,0,0,54.15,21.59Z"/></svg>