<svg xmlns="http://www.w3.org/2000/svg" viewBox="0 0 134.31 113.01"><title>weekly</title><rect x="23.27" y="15.68" width="87.78" height="19.34"/><rect x="85.95" y="39.6" width="25.1" height="3.35"/><rect x="85.95" y="41.93" width="25.1" height="23.97"/><rect x="85.95" y="65.26" width="25.1" height="3.35"/><rect x="23.27" y="39.6" width="25.1" height="3.35"/><rect x="23.27" y="48.15" width="25.1" height="3.35"/><rect x="23.27" y="56.7" width="25.1" height="3.35"/><rect x="23.27" y="65.26" width="25.1" height="3.35"/><rect x="54.79" y="39.6" width="25.1" height="3.35"/><rect x="54.79" y="48.15" width="25.1" height="3.35"/><rect x="54.79" y="56.7" width="25.1" height="3.35"/><rect x="54.79" y="65.26" width="25.1" height="3.35"/><rect x="40.22" y="39.6" width="25.1" height="3.35"/><rect x="40.22" y="48.15" width="25.1" height="3.35"/><rect x="40.22" y="56.7" width="25.1" height="3.35"/><rect x="40.22" y="65.26" width="25.1" height="3.35"/><rect x="49.41" y="100.67" width="35.49" height="7.34"/><path d="M131,0H3.35A3.35,3.35,0,0,0,0,3.38V95.22a3.35,3.35,0,0,0,3.35,3.37H131a3.36,3.36,0,0,0,3.35-3.37V3.38A3.36,3.36,0,0,0,131,0Zm-5,77.06H8.31V8.13H126Z"/><path d="M93.39,109.65H40.91a2.43,2.43,0,0,0-2.41,2.45V113H95.8v-.91A2.43,2.43,0,0,0,93.39,109.65Z"/></svg>