<svg xmlns="http://www.w3.org/2000/svg" viewBox="0 0 127.14 113.01"><title>Wiki</title><path d="M123.1,0H4A4,4,0,0,0,0,4V109a4,4,0,0,0,4,4H123.1a4,4,0,0,0,4-4V4A4,4,0,0,0,123.1,0ZM97.88,8.74a5.38,5.38,0,1,1-5.39,5.38A5.38,5.38,0,0,1,97.88,8.74Zm-15.81,0a5.38,5.38,0,1,1-5.38,5.38A5.38,5.38,0,0,1,82.07,8.74Zm37,96.2H8.07V28.26h111Zm-5.37-85.43a5.38,5.38,0,1,1,5.37-5.38A5.38,5.38,0,0,1,113.69,19.51Z"/><rect x="19.68" y="40.59" width="87.78" height="19.34"/><rect x="19.68" y="64.66" width="25.1" height="3.35"/><rect x="19.68" y="73.22" width="25.1" height="3.35"/><rect x="19.68" y="81.77" width="25.1" height="3.35"/><rect x="19.68" y="90.33" width="25.1" height="3.35"/><rect x="50.32" y="64.66" width="6.59" height="12.01"/><rect x="54.92" y="64.66" width="47.2" height="12.01"/><rect x="100.86" y="64.66" width="6.59" height="12.01"/><rect x="50.32" y="81.77" width="57.14" height="3.35"/><rect x="50.32" y="90.33" width="57.07" height="3.35"/></svg>